<svg width="100" height="100" viewBox="0 0 100 100" fill="none" xmlns="http://www.w3.org/2000/svg">
<path d="M91.6667 49.9999C91.6645 38.9499 87.2739 28.3531 79.4603 20.5396C71.6468 12.726 61.05 8.33546 50 8.33325V16.6666C56.5921 16.6681 63.0358 18.6234 68.5171 22.2855C73.9983 25.9476 78.2712 31.1521 80.7958 37.2416C82.4713 41.2865 83.3336 45.6218 83.3333 49.9999H91.6667ZM8.33333 41.6666V20.8333C8.33333 19.7282 8.77232 18.6684 9.55372 17.887C10.3351 17.1056 11.3949 16.6666 12.5 16.6666H33.3333C34.4384 16.6666 35.4982 17.1056 36.2796 17.887C37.061 18.6684 37.5 19.7282 37.5 20.8333V37.4999C37.5 38.605 37.061 39.6648 36.2796 40.4462C35.4982 41.2276 34.4384 41.6666 33.3333 41.6666H25C25 50.5071 28.5119 58.9856 34.7631 65.2368C41.0143 71.488 49.4928 74.9999 58.3333 74.9999V66.6666C58.3333 65.5615 58.7723 64.5017 59.5537 63.7203C60.3351 62.9389 61.3949 62.4999 62.5 62.4999H79.1667C80.2717 62.4999 81.3316 62.9389 82.1129 63.7203C82.8944 64.5017 83.3333 65.5615 83.3333 66.6666V87.4999C83.3333 88.605 82.8944 89.6648 82.1129 90.4462C81.3316 91.2276 80.2717 91.6666 79.1667 91.6666H58.3333C30.7208 91.6666 8.33333 69.2791 8.33333 41.6666Z" fill="#141414"/>
<path d="M73.0958 40.4333C74.3536 43.4659 75.0007 46.7169 75 50H67.5C67.5005 47.7017 67.0483 45.4258 66.169 43.3024C65.2897 41.1789 64.0007 39.2495 62.3756 37.6244C60.7505 35.9993 58.8211 34.7103 56.6976 33.831C54.5742 32.9517 52.2983 32.4995 50 32.5V25C54.9444 25.0003 59.7777 26.4667 63.8887 29.2138C67.9997 31.9609 71.2038 35.8653 73.0958 40.4333Z" fill="#141414"/>
</svg>
