<svg width="106" height="50" viewBox="0 0 106 50" fill="none" xmlns="http://www.w3.org/2000/svg">
<rect x="1.5" y="1.5" width="103" height="47" stroke="white" stroke-opacity="0.5" stroke-width="3"/>
<path d="M28.8477 15.6836H32.7852L41.6445 34H37.7422L36.2773 30.918H25.5781L24.1602 34H20.2461L28.8477 15.6836ZM34.8125 27.8594L30.8516 19.5391L26.9961 27.8594H34.8125ZM44.4922 15.6836H54.2773C55.4727 15.6836 56.5117 15.8125 57.3945 16.0703C58.2852 16.3203 59.0234 16.668 59.6094 17.1133C60.1953 17.5586 60.6289 18.0898 60.9102 18.707C61.1992 19.3164 61.3438 19.9766 61.3438 20.6875C61.3438 21.8516 60.9766 22.8711 60.2422 23.7461C61.0859 24.2461 61.7148 24.8945 62.1289 25.6914C62.543 26.4883 62.75 27.3945 62.75 28.4102C62.75 29.2617 62.6055 30.0312 62.3164 30.7188C62.0352 31.4062 61.6016 31.9961 61.0156 32.4883C60.4375 32.9727 59.7031 33.3477 58.8125 33.6133C57.9297 33.8711 56.8867 34 55.6836 34H44.4922V15.6836ZM55.707 22.7148C56.0273 22.7148 56.3398 22.7266 56.6445 22.75C57.168 22.25 57.4297 21.6797 57.4297 21.0391C57.4297 20.375 57.168 19.8633 56.6445 19.5039C56.1289 19.1367 55.3711 18.9531 54.3711 18.9531H48.207V22.7148H55.707ZM55.7773 30.7656C56.7773 30.7656 57.5352 30.5508 58.0508 30.1211C58.5742 29.6914 58.8359 29.0859 58.8359 28.3047C58.8359 27.5234 58.5742 26.9141 58.0508 26.4766C57.5352 26.0391 56.7773 25.8203 55.7773 25.8203H48.207V30.7656H55.7773ZM65.4102 24.7305C65.4102 23.4258 65.6562 22.2109 66.1484 21.0859C66.6406 19.9531 67.3516 18.9727 68.2812 18.1445C69.2188 17.3086 70.3594 16.6523 71.7031 16.1758C73.0547 15.6992 74.582 15.4609 76.2852 15.4609C77.7773 15.4609 79.1445 15.6133 80.3867 15.918C81.6367 16.2148 82.7969 16.6719 83.8672 17.2891L82.1562 20.1016C81.8359 19.8906 81.4648 19.7031 81.043 19.5391C80.6289 19.375 80.1836 19.2383 79.707 19.1289C79.2383 19.0117 78.75 18.9219 78.2422 18.8594C77.7422 18.7969 77.2461 18.7656 76.7539 18.7656C75.5664 18.7656 74.5078 18.9141 73.5781 19.2109C72.6484 19.5 71.8633 19.9102 71.2227 20.4414C70.5898 20.9648 70.1055 21.5938 69.7695 22.3281C69.4414 23.0547 69.2773 23.8555 69.2773 24.7305C69.2773 25.6367 69.4492 26.4688 69.793 27.2266C70.1367 27.9844 70.6328 28.6406 71.2812 29.1953C71.9375 29.7422 72.7344 30.1719 73.6719 30.4844C74.6172 30.7891 75.6836 30.9414 76.8711 30.9414C77.4102 30.9414 77.9453 30.9023 78.4766 30.8242C79.0078 30.7461 79.5195 30.6406 80.0117 30.5078C80.5117 30.3672 80.9922 30.2031 81.4531 30.0156C81.9141 29.8203 82.3438 29.6094 82.7422 29.3828L84.4531 32.1953C83.4531 32.8359 82.2969 33.3398 80.9844 33.707C79.6719 34.0664 78.2773 34.2461 76.8008 34.2461C74.918 34.2461 73.2656 34.0039 71.8438 33.5195C70.4219 33.0273 69.2344 32.3555 68.2812 31.5039C67.3281 30.6445 66.6094 29.6367 66.125 28.4805C65.6484 27.3164 65.4102 26.0664 65.4102 24.7305Z" fill="white" fill-opacity="0.5"/>
</svg>
