<svg width="100" height="100" viewBox="0 0 100 100" fill="none" xmlns="http://www.w3.org/2000/svg">
<g clip-path="url(#clip0_6_295)">
<path d="M50 0C36.7422 0 24.0156 5.27109 14.6484 14.6445C5.27158 24.0217 0.00259742 36.7389 0 50C0 63.2555 5.27344 75.982 14.6484 85.3555C24.0156 94.7289 36.7422 100 50 100C63.2578 100 75.9844 94.7289 85.3516 85.3555C94.7266 75.982 100 63.2555 100 50C100 36.7445 94.7266 24.018 85.3516 14.6445C75.9844 5.27109 63.2578 0 50 0Z" fill="url(#paint0_linear_6_295)"/>
<path d="M22.6328 49.4719C37.2109 43.1219 46.9297 38.9352 51.7891 36.9126C65.6797 31.1368 68.5625 30.1336 70.4453 30.0997C70.8594 30.093 71.7812 30.1954 72.3828 30.6817C72.8828 31.0918 73.0234 31.6465 73.0937 32.036C73.1562 32.4251 73.2422 33.3118 73.1719 34.004C72.4219 41.9102 69.1641 61.0961 67.5078 69.9516C66.8125 73.6985 65.4297 74.9547 64.0938 75.0774C61.1875 75.3446 58.9844 73.1586 56.1719 71.3157C51.7734 68.4305 49.2891 66.6352 45.0156 63.8204C40.0781 60.5672 43.2812 58.779 46.0938 55.8571C46.8281 55.0922 59.625 43.4555 59.8672 42.4001C59.8984 42.268 59.9297 41.7758 59.6328 41.5165C59.3438 41.2563 58.9141 41.3454 58.6016 41.4157C58.1563 41.5157 51.1328 46.1626 37.5078 55.3555C35.5156 56.7258 33.7109 57.3938 32.0859 57.3586C30.3047 57.3204 26.8672 56.3493 24.3125 55.5196C21.1875 54.5016 18.6953 53.9633 18.9141 52.2344C19.0234 51.3344 20.2656 50.4133 22.6328 49.4719Z" fill="white"/>
</g>
<defs>
<linearGradient id="paint0_linear_6_295" x1="5000" y1="0" x2="5000" y2="10000" gradientUnits="userSpaceOnUse">
<stop stop-color="#2AABEE"/>
<stop offset="1" stop-color="#229ED9"/>
</linearGradient>
<clipPath id="clip0_6_295">
<rect width="100" height="100" fill="white"/>
</clipPath>
</defs>
</svg>
