<svg width="100" height="100" viewBox="0 0 100 100" fill="none" xmlns="http://www.w3.org/2000/svg">
<path d="M41.6667 62.4999L63.2917 49.9999L41.6667 37.4999V62.4999ZM89.8333 29.8749C90.375 31.8333 90.75 34.4583 91 37.7916C91.2917 41.1249 91.4167 43.9999 91.4167 46.4999L91.6667 49.9999C91.6667 59.1249 91 65.8332 89.8333 70.1249C88.7917 73.8749 86.375 76.2916 82.625 77.3332C80.6667 77.8749 77.0833 78.2499 71.5833 78.4999C66.1667 78.7916 61.2083 78.9166 56.625 78.9166L50 79.1666C32.5417 79.1666 21.6667 78.4999 17.375 77.3332C13.625 76.2916 11.2083 73.8749 10.1667 70.1249C9.625 68.1666 9.25 65.5416 9 62.2083C8.70833 58.8749 8.58333 55.9999 8.58333 53.4999L8.33333 49.9999C8.33333 40.8749 9 34.1666 10.1667 29.8749C11.2083 26.1249 13.625 23.7083 17.375 22.6666C19.3333 22.1249 22.9167 21.7499 28.4167 21.4999C33.8333 21.2083 38.7917 21.0833 43.375 21.0833L50 20.8333C67.4583 20.8333 78.3333 21.4999 82.625 22.6666C86.375 23.7083 88.7917 26.1249 89.8333 29.8749Z" fill="#FF0000"/>
</svg>
