<svg width="100" height="100" viewBox="0 0 100 100" fill="none" xmlns="http://www.w3.org/2000/svg">
<g clip-path="url(#clip0_6_298)">
<path d="M39.5375 0.0166504L42.575 0.00415039H57.425L60.4667 0.0166504L64.275 0.0583171L66.0792 0.0874837L67.8208 0.133317L69.5 0.19165L71.1167 0.258317L72.675 0.345817L74.175 0.449984L75.6125 0.574984L77 0.712484C84.25 1.52915 89.2208 3.27915 92.9708 7.02915C96.7208 10.7792 98.4708 15.7458 99.2875 23L99.4292 24.3875L99.55 25.8291L99.6542 27.3291L99.7375 28.8833L99.8417 31.3333L99.8917 33.0416L99.9458 35.725L99.9833 39.5375L100 43.6208L99.9958 57.425L99.9833 60.4666L99.9417 64.275L99.9125 66.0791L99.8667 67.8208L99.8083 69.5L99.7417 71.1167L99.6542 72.675L99.55 74.175L99.425 75.6125L99.2875 77C98.4708 84.25 96.7208 89.2208 92.9708 92.9708C89.2208 96.7208 84.2542 98.4708 77 99.2875L75.6125 99.4292L74.1708 99.55L72.6708 99.6542L71.1167 99.7375L68.6667 99.8417L66.9583 99.8917L64.275 99.9458L60.4625 99.9833L56.3792 100L42.575 99.9958L39.5333 99.9833L35.725 99.9417L33.9208 99.9125L32.1792 99.8667L30.5 99.8083L28.8833 99.7416L27.325 99.6542L25.825 99.55L24.3875 99.425L23 99.2875C15.75 98.4708 10.7792 96.7208 7.02917 92.9708C3.27917 89.2208 1.52917 84.2542 0.7125 77L0.570833 75.6125L0.45 74.1708L0.345833 72.6708L0.2625 71.1167L0.158333 68.6666L0.108333 66.9583L0.0541667 64.275L0.0166667 60.4625L0 56.3791L0.00416667 42.575L0.0166667 39.5333L0.0583333 35.725L0.0875 33.9208L0.133333 32.1791L0.191667 30.5L0.258333 28.8833L0.345833 27.325L0.45 25.825L0.575 24.3875L0.7125 23C1.52917 15.75 3.27917 10.7792 7.02917 7.02915C10.7792 3.27915 15.7458 1.52915 23 0.712484L24.3875 0.570817L25.8292 0.449984L27.3292 0.345817L28.8833 0.262484L31.3333 0.158317L33.0417 0.108317L35.725 0.0541504L39.5375 0.0166504ZM28.2917 30.4167H16.875C17.4167 56.4166 30.4167 72.0417 53.2083 72.0417H54.5V57.1666C62.875 58 69.2083 64.125 71.75 72.0417H83.5833C80.3333 60.2083 71.7917 53.6666 66.4583 51.1666C71.7917 48.0833 79.2917 40.5833 81.0833 30.4167H70.3333C68 38.6666 61.0833 46.1666 54.5 46.875V30.4167H43.75V59.25C37.0833 57.5833 28.6667 49.5 28.2917 30.4167Z" fill="#0047FF"/>
</g>
<defs>
<clipPath id="clip0_6_298">
<rect width="100" height="100" fill="white"/>
</clipPath>
</defs>
</svg>
